<svg width="96" height="20" viewBox="0 0 96 20" fill="none" xmlns="http://www.w3.org/2000/svg">
<path d="M0.92 9.632C0.904 9.52 0.896 9.336 0.896 9.08C0.896 8.456 0.96 7.848 1.088 7.256C1.216 6.664 1.4 6.016 1.64 5.312C1.88 4.656 2.336 4 3.008 3.344C3.68 2.688 4.432 2.152 5.264 1.736C6.096 1.304 6.848 1.088 7.52 1.088C8.208 1.088 8.88 1.344 9.536 1.856C10.192 2.352 10.608 2.92 10.784 3.56C10.816 3.752 10.832 3.88 10.832 3.944C10.832 4.184 10.76 4.368 10.616 4.496C10.488 4.608 10.312 4.664 10.088 4.664C9.912 4.664 9.776 4.656 9.68 4.64C9.632 4.64 9.56 4.608 9.464 4.544C9 4.288 8.552 4.16 8.12 4.16C7.304 4.16 6.496 4.584 5.696 5.432C4.336 6.856 3.656 8.552 3.656 10.52C3.656 11.224 3.728 11.904 3.872 12.56C4.032 13.296 4.312 13.84 4.712 14.192C5.128 14.528 5.68 14.696 6.368 14.696C6.608 14.696 6.872 14.672 7.16 14.624C8.168 14.496 9.096 14.192 9.944 13.712C10.792 13.216 11.728 12.56 12.752 11.744C12.992 11.552 13.416 11.152 14.024 10.544L14.504 10.04C14.712 9.832 14.888 9.688 15.032 9.608C15.192 9.512 15.336 9.464 15.464 9.464C15.672 9.464 15.928 9.568 16.232 9.776C16.568 10.016 16.736 10.32 16.736 10.688C16.736 10.944 16.648 11.184 16.472 11.408C16.408 11.52 16.232 11.784 15.944 12.2C15.656 12.6 15.376 12.96 15.104 13.28C14.832 13.6 14.56 13.872 14.288 14.096C12.816 15.392 11.28 16.264 9.68 16.712C8.976 16.904 8.272 17 7.568 17C6.272 17 5.12 16.672 4.112 16.016C3.12 15.36 2.344 14.504 1.784 13.448C1.224 12.376 0.936 11.264 0.92 10.112V9.632ZM31.1309 4.136C31.2269 4.824 31.3229 5.824 31.4189 7.136L31.4669 8.384C31.4669 10.704 31.7709 12.776 32.3789 14.6C32.4589 14.856 32.4989 15.184 32.4989 15.584C32.4989 15.808 32.4829 16.112 32.4509 16.496C32.4349 16.752 32.3389 16.952 32.1629 17.096C31.9869 17.256 31.7629 17.336 31.4909 17.336C31.4589 17.336 31.3709 17.32 31.2269 17.288C30.8269 17.192 30.5229 17.016 30.3149 16.76C30.1069 16.488 30.0029 16.16 30.0029 15.776C30.0029 15.648 30.0109 15.552 30.0269 15.488C30.0269 15.392 30.0269 15.256 30.0269 15.08C30.0269 14.792 30.0109 14.528 29.9789 14.288C29.8509 13.664 29.6509 12.832 29.3789 11.792C29.2829 11.36 29.0829 11.144 28.7789 11.144C28.6669 11.144 28.5389 11.168 28.3949 11.216C27.8989 11.36 27.4589 11.496 27.0749 11.624C26.7069 11.752 26.3789 11.856 26.0909 11.936L24.9389 12.272C24.2829 12.464 23.6749 12.616 23.1149 12.728C22.5229 12.856 22.0909 13.184 21.8189 13.712C21.5629 14.192 21.1949 14.84 20.7149 15.656C20.4109 16.2 20.0109 16.472 19.5149 16.472C19.2749 16.472 19.0349 16.416 18.7949 16.304C18.5709 16.176 18.3789 16.016 18.2189 15.824C17.9789 15.552 17.8589 15.288 17.8589 15.032C17.8589 14.856 17.9069 14.672 18.0029 14.48L19.6589 11.12C21.4829 7.408 22.5709 5.184 22.9229 4.448C23.9309 2.496 25.2989 1.152 27.0269 0.415999C27.3949 0.239999 27.7709 0.151999 28.1549 0.151999C28.6349 0.151999 29.0749 0.279999 29.4749 0.535999C29.8909 0.776 30.2109 1.12 30.4349 1.568C30.7549 2.224 30.9869 3.08 31.1309 4.136ZM23.3789 10.208C25.5709 9.824 27.4349 9.512 28.9709 9.272C28.9389 7.736 28.8909 6.528 28.8269 5.648C28.7789 4.752 28.6669 3.856 28.4909 2.96C27.6429 3.056 27.0029 3.472 26.5709 4.208C25.8189 5.392 25.0989 6.616 24.4109 7.88C24.2989 8.088 24.0909 8.552 23.7869 9.272L23.3789 10.208ZM42.6204 12.344C42.5404 12.28 42.4364 12.168 42.3084 12.008C42.1964 11.832 42.1004 11.696 42.0204 11.6L43.9404 10.688L44.5404 10.4C44.8924 10.24 45.1564 10.112 45.3324 10.016C46.4524 9.328 47.5804 8.608 48.7164 7.856C49.0524 7.616 49.3804 7.28 49.7004 6.848C49.9404 6.464 50.0684 6.16 50.0844 5.936C50.1164 5.536 49.8364 5.208 49.2444 4.952C48.7644 4.744 48.1324 4.528 47.3484 4.304C46.4044 4.032 45.4124 3.792 44.3724 3.584C44.1164 3.552 43.9084 3.536 43.7484 3.536C43.4764 3.536 43.2524 3.568 43.0764 3.632C42.2924 3.92 41.6524 4.072 41.1564 4.088C40.8044 4.088 40.4364 4.016 40.0524 3.872C39.7804 3.456 39.6444 3.08 39.6444 2.744C39.6444 2.36 39.8284 2.072 40.1964 1.88C40.8844 1.528 41.4524 1.384 41.9004 1.448C43.6444 1.704 45.2444 2.04 46.7004 2.456C48.1564 2.856 49.5244 3.408 50.8044 4.112C51.1244 4.288 51.4124 4.52 51.6684 4.808C51.9404 5.096 52.2684 5.496 52.6524 6.008C52.7804 6.216 52.8524 6.424 52.8684 6.632C52.9004 6.968 52.7404 7.336 52.3884 7.736C51.8284 8.376 51.0044 9.04 49.9164 9.728C49.4364 10.032 49.0124 10.288 48.6444 10.496C48.2924 10.704 47.9964 10.88 47.7564 11.024L46.6764 11.672C46.4844 11.784 46.2364 11.92 45.9324 12.08C45.9804 12.192 46.0604 12.376 46.1724 12.632C46.3004 12.888 46.4204 13.112 46.5324 13.304C47.6524 15.208 49.2604 16.552 51.3564 17.336C52.1724 17.64 52.6844 17.84 52.8924 17.936C53.0844 18.032 53.2284 18.12 53.3244 18.2C53.4364 18.296 53.4924 18.416 53.4924 18.56C53.4924 18.64 53.4684 18.728 53.4204 18.824C53.3404 19.064 53.1724 19.184 52.9164 19.184C52.8364 19.184 52.7564 19.176 52.6764 19.16C52.6124 19.144 52.5564 19.128 52.5084 19.112C50.0444 18.664 47.8444 17.496 45.9084 15.608C45.4124 15.128 44.8684 14.536 44.2764 13.832C44.0044 13.512 43.6524 13.192 43.2204 12.872L42.6204 12.344ZM37.8924 8.288C37.9084 8.24 37.9564 7.968 38.0364 7.472C38.0364 7.376 38.0524 7.216 38.0844 6.992C38.4044 6.72 38.7324 6.584 39.0684 6.584C39.3884 6.584 39.7884 6.704 40.2684 6.944C40.4604 7.04 40.6124 7.176 40.7244 7.352C40.8364 7.528 40.8924 7.72 40.8924 7.928C40.8924 8.056 40.8684 8.192 40.8204 8.336C40.7564 8.576 40.6044 8.984 40.3644 9.56L40.0524 10.424L39.7884 11.216C39.7084 11.488 39.5164 12.072 39.2124 12.968C38.9244 13.864 38.6764 14.704 38.4684 15.488C38.3724 15.856 38.2124 16.144 37.9884 16.352C37.7804 16.544 37.4924 16.688 37.1244 16.784C36.9644 16.832 36.8124 16.856 36.6684 16.856C36.4284 16.856 36.2444 16.776 36.1164 16.616C36.0044 16.456 35.9564 16.224 35.9724 15.92C36.0524 14.704 36.2364 13.624 36.5244 12.68C36.6844 12.168 36.9484 11.304 37.3164 10.088C37.3804 9.88 37.4604 9.632 37.5564 9.344C37.6684 9.04 37.7804 8.688 37.8924 8.288ZM60.7903 7.832L61.6543 7.712C62.2783 7.616 62.7023 7.56 62.9263 7.544L63.5023 7.496C63.6943 7.48 63.9343 7.464 64.2223 7.448C64.5103 7.432 64.8383 7.424 65.2063 7.424C65.5583 7.424 65.8143 7.432 65.9743 7.448C66.5343 7.496 66.9423 7.68 67.1983 8C67.4703 8.32 67.6303 8.8 67.6783 9.44C67.6143 9.44 67.5183 9.432 67.3903 9.416C67.2623 9.4 67.1583 9.384 67.0782 9.368C66.6302 9.288 66.2223 9.248 65.8543 9.248C65.4223 9.248 65.0063 9.304 64.6063 9.416C63.5823 9.736 62.2703 10.072 60.6703 10.424C60.3663 10.504 60.1263 10.632 59.9503 10.808C59.7903 10.968 59.6863 11.2 59.6383 11.504C59.5423 12.112 59.4223 12.72 59.2783 13.328C59.1663 13.888 59.0783 14.352 59.0143 14.72C58.9983 14.848 58.9903 15.016 58.9903 15.224C58.9903 15.416 58.9903 15.552 58.9903 15.632C59.2463 15.68 59.5103 15.704 59.7823 15.704C60.3103 15.704 60.9583 15.6 61.7263 15.392C63.1343 15.056 64.5503 14.696 65.9743 14.312L68.6143 13.64C69.4463 13.432 70.1023 13.248 70.5823 13.088C71.6223 12.8 72.3743 12.6 72.8383 12.488C73.0303 12.456 73.1743 12.44 73.2703 12.44C73.6703 12.44 73.9343 12.6 74.0623 12.92C74.1103 13.032 74.1343 13.144 74.1343 13.256C74.1343 13.448 74.0703 13.632 73.9423 13.808C73.8143 13.984 73.6383 14.128 73.4143 14.24C73.1103 14.368 72.6943 14.504 72.1663 14.648C70.6303 15.096 69.2703 15.52 68.0863 15.92C65.7823 16.656 64.0703 17.176 62.9503 17.48C62.5023 17.608 61.8303 17.72 60.9343 17.816L60.0463 17.936C59.5023 18 59.0143 17.816 58.5823 17.384L58.1503 16.952C57.6223 16.456 57.2143 16.024 56.9263 15.656C56.7183 15.384 56.6303 15.008 56.6623 14.528C56.7103 13.968 56.8143 13.112 56.9743 11.96L57.0703 11.192L57.1423 10.472C56.6623 10.328 56.2863 10.152 56.0143 9.944C55.7583 9.72 55.6223 9.368 55.6063 8.888C56.1183 8.824 56.5023 8.792 56.7583 8.792C57.0463 8.776 57.2783 8.704 57.4543 8.576C57.6303 8.448 57.7663 8.24 57.8623 7.952C58.0383 7.376 58.3343 6.528 58.7503 5.408C58.8783 4.992 59.0383 4.528 59.2303 4.016C59.3103 3.76 59.3663 3.44 59.3983 3.056C59.3983 2.768 59.4623 2.544 59.5903 2.384C59.7343 2.208 59.9583 2.072 60.2623 1.976C61.7183 1.528 63.6143 1.184 65.9503 0.943999C66.7183 0.863999 67.4783 0.839999 68.2303 0.871999C69.2863 0.871999 70.0703 1.272 70.5823 2.072C70.7263 2.264 70.7983 2.52 70.7983 2.84C70.7983 2.984 70.7823 3.088 70.7503 3.152C70.6543 3.376 70.5103 3.568 70.3183 3.728C70.1423 3.872 69.9183 3.944 69.6463 3.944L68.7103 3.968C68.2623 4 67.9343 4.016 67.7263 4.016C67.2783 4.016 66.9743 3.936 66.8143 3.776C66.5903 3.552 66.3103 3.44 65.9743 3.44C65.8783 3.44 65.7183 3.456 65.4943 3.488L63.1183 4.04L62.1583 4.28L60.7903 7.832ZM94.0301 7.616C94.6861 7.616 95.0141 7.816 95.0141 8.216C95.0141 8.552 94.8141 8.952 94.4141 9.416C94.0141 9.864 93.5901 10.2 93.1421 10.424L91.7261 10.64C90.8941 10.768 90.2701 10.856 89.8541 10.904C89.4861 10.952 89.1981 11.072 88.9901 11.264C88.7981 11.44 88.6461 11.712 88.5341 12.08C87.9581 14 87.4781 15.416 87.0941 16.328C86.9341 16.728 86.5021 17.16 85.7981 17.624C85.5901 17.752 85.4141 17.816 85.2701 17.816C85.1261 17.816 85.0141 17.744 84.9341 17.6C84.8701 17.472 84.8461 17.288 84.8621 17.048C84.9261 16.392 85.0701 15.368 85.2941 13.976L85.4381 13.016L85.5821 12.152C85.0221 12.152 84.5261 12.304 84.0941 12.608C83.6781 12.896 83.2221 13.04 82.7261 13.04C82.4541 13.04 82.0701 12.968 81.5741 12.824C80.9341 12.632 80.6141 12.248 80.6141 11.672C80.6141 11.368 80.7901 11.064 81.1421 10.76C81.6861 10.296 82.2861 9.928 82.9421 9.656C83.5981 9.368 84.3581 9.112 85.2221 8.888C85.6061 8.792 85.8621 8.712 85.9901 8.648C86.1181 8.584 86.2061 8.488 86.2541 8.36C86.3021 8.216 86.3421 7.952 86.3741 7.568C86.4061 7.344 86.4221 7.016 86.4221 6.584L86.3981 5.096C86.3981 5.016 86.3821 4.904 86.3501 4.76C86.3181 4.6 86.3021 4.48 86.3021 4.4C86.3341 4.064 86.4381 3.8 86.6141 3.608C86.7901 3.4 87.0141 3.296 87.2861 3.296C87.4621 3.296 87.6221 3.328 87.7661 3.392C88.8381 3.76 89.4221 4.44 89.5181 5.432C89.5341 5.608 89.5421 5.864 89.5421 6.2L89.5181 7.76C89.5981 7.776 89.7261 7.808 89.9021 7.856C90.0941 7.904 90.2541 7.92 90.3821 7.904C91.8541 7.808 92.9581 7.72 93.6941 7.64L94.0301 7.616Z" fill="url(#paint0_linear_119_11)"/>
<defs>
<linearGradient id="paint0_linear_119_11" x1="-1" y1="9" x2="97" y2="9" gradientUnits="userSpaceOnUse">
<stop offset="0.47449" stop-color="#008080"/>
<stop offset="1" stop-color="#444444"/>
</linearGradient>
</defs>
</svg>
