<svg width="1226" height="1111" viewBox="0 0 1226 1111" fill="none" xmlns="http://www.w3.org/2000/svg">
<mask id="path-1-inside-1_16_18" fill="white">
<path d="M12.9735 165.382L22.7037 177.557L41.3532 187.703L57.5701 199.879L74.5979 214.083L88.3823 231.331L101.356 252.638L110.275 273.945L116.762 295.252L123.249 324.676L124.87 355.114L127.303 389.611L131.357 436.283L137.033 471.795L146.763 503.247L161.358 531.657L180.008 556.007L204.333 578.329L229.47 593.548L254.606 604.709L281.364 610.796L304.878 613.84H320.284L285.418 638.191L258.66 665.585L241.632 690.951L223.794 729.506L217.307 765.017L215.685 787.339V816.763L219.739 846.186L226.226 868.508L236.767 891.844L246.497 911.122L255.011 924.819L263.525 938.516L273.255 960.837L274.066 968.954V981.13V991.276V1002.44L273.255 1013.6L270.012 1024.76L266.769 1035.92L261.903 1047.08L257.038 1056.21L252.984 1064.33L249.741 1069.4L246.497 1076.5L242.443 1082.59L241.632 1088.68L244.876 1102.88L249.741 1111H260.282L270.012 1108.97L277.31 1102.88L283.796 1094.77L289.472 1084.62L295.148 1074.47L301.635 1064.33L311.365 1052.15L321.095 1044.04L330.015 1037.95L338.934 1032.87L350.286 1028.82L360.827 1024.76L370.557 1020.7L381.098 1015.63H395.693L420.829 1009.54L442.722 1000.41L463.804 986.203L487.319 965.911L502.725 947.648L516.509 925.326L531.104 895.902L544.078 864.449L557.862 815.748L564.349 780.237L570.025 750.813L572.458 730.521V575.285L570.025 557.022L566.782 537.744L559.484 504.262L552.997 473.824L539.213 430.195L519.753 382.509L501.103 344.968L479.21 305.398L445.155 255.682L409.478 214.083L379.476 183.645L355.151 160.309L332.447 141.031L297.581 113.637L266.769 93.3443L237.578 76.0959L206.766 59.8621L181.63 48.7014L159.737 40.5845L131.357 33.4822L104.599 31.453H87.5714L68.1111 33.4822L52.705 38.5553L37.2989 46.6721L20.2712 59.8621L8.91931 76.0959L2.43254 93.3443L0 110.593V123.783L2.43254 136.973L4.86508 147.119L7.29762 153.206L12.9735 165.382Z"/>
<path d="M643.812 482.955L644.623 496.145V524.554V545.861L643.812 575.285L641.38 593.548V648.337L638.947 743.711L635.704 789.368L631.65 829.953L627.595 859.376L621.109 895.902L617.054 912.136L612.189 925.326L608.135 912.136L602.459 888.8L596.783 857.347L591.918 826.909L587.864 786.324L584.62 750.813V722.404L582.999 691.965V640.22V593.548V578.329L580.566 547.89V496.145L582.188 482.955L584.62 473.824L587.864 463.678L592.729 455.561L600.026 446.429L608.135 441.356H619.487L627.595 446.429L632.46 452.517L636.515 459.619L640.569 470.78L643.812 482.955Z"/>
<path d="M613 327.72C556.241 327.72 565.16 424.108 613 424.108C660.84 424.108 669.759 327.72 613 327.72Z"/>
<path d="M479.21 54.789V42.6137V39.5699L488.13 47.6868L497.86 54.789L509.212 59.8621L520.564 75.0813L529.483 89.2858L537.591 102.476L546.511 120.739L554.619 135.958L561.106 152.192L566.782 168.426L572.458 183.645L578.134 200.893L582.999 216.112L587.053 231.331L591.918 255.682L595.161 276.989L598.405 309.457H603.27L600.026 273.945L593.54 238.434L588.675 214.083L581.377 183.645L572.458 156.25L564.349 136.973L552.997 112.622L544.889 94.3589L537.591 82.1836L529.483 71.0228L518.942 54.789L513.266 45.6575L507.59 39.5699L501.914 32.4676L494.616 25.3653L488.13 19.2776L479.21 14.2046L471.102 10.1461L462.183 3.04384L452.452 0H445.155H439.479L432.181 5.07306L425.694 10.1461L419.208 19.2776L415.153 28.4091L412.721 42.6137V54.789L415.153 62.9059L419.208 75.0813L425.694 82.1836L432.181 89.2858L442.722 94.3589L455.696 92.3297L466.237 87.2566L473.534 79.1397L478.4 68.9936L479.21 54.789Z"/>
<path d="M745.979 47.6868V38.5553L743.546 35.5114L739.492 38.5553L729.762 47.6868L717.599 56.8183L705.437 68.9936L694.085 85.2274L685.976 102.476L677.868 116.68L670.57 131.9L662.462 149.148L656.786 168.426L648.677 191.762L643.001 212.054L638.136 233.361L634.082 251.624L629.217 276.989L627.595 294.237V310.471L622.73 309.457V298.296V281.047L625.163 260.755L629.217 237.419L634.082 214.083L639.758 191.762L644.623 176.542L649.488 161.323L655.164 144.075L662.462 126.826L672.192 107.549L681.111 90.3005L688.409 78.1251L698.139 63.9206L706.247 53.7744L715.978 41.5991L724.086 32.4676L737.06 19.2776L745.979 16.2338L751.655 13.19L757.331 7.10228L764.628 4.05845L775.98 3.04384H785.71L795.44 9.13151L801.116 19.2776L811.657 30.4384V41.5991V56.8183L807.603 71.0228L801.116 80.1543L793.008 87.2566L780.034 92.3297H770.304L763.007 87.2566L754.087 80.1543L747.601 68.9936L745.979 56.8183V47.6868Z"/>
<path d="M1216.27 154.221L1203.3 169.44L1187.89 181.616L1173.3 191.762L1161.13 202.922L1148.16 215.098L1137.62 229.302L1126.27 247.565L1115.72 266.843L1108.43 288.15L1103.56 311.486L1099.51 339.895L1096.26 368.304L1093.83 393.669L1092.21 421.064L1089.78 445.415L1084.91 474.838L1080.05 493.101L1069.51 515.423L1055.72 537.744L1038.69 558.037L1015.99 578.329L997.341 591.519L975.448 602.68L955.177 607.753L934.906 610.796L913.824 611.811H901.661L929.23 631.089L947.069 647.322L964.907 666.6L981.124 690.951L994.909 716.316L1003.83 740.667L1008.69 767.047L1010.31 798.5L1008.69 821.836L1003.83 849.23L994.909 878.654L981.124 911.122L964.097 936.487L947.069 955.764V961.852V971.998V988.232L947.88 1003.45L951.934 1017.66L956.799 1030.85L961.664 1040.99L966.529 1049.11L973.016 1058.24L980.314 1068.39L985.179 1078.53V1091.72L980.314 1099.84L973.016 1105.93L966.529 1108.97L956.799 1107.96L945.447 1098.82L938.15 1089.69L932.474 1078.53L928.419 1068.39L923.554 1062.3L916.257 1054.18L907.337 1047.08L899.229 1040.99L894.364 1036.93L885.445 1033.89L875.714 1030.85L868.417 1027.8L860.308 1025.77L848.956 1022.73L844.091 1017.66L810.847 1013.6L784.089 1003.45L760.574 988.232L736.249 966.925L716.788 942.574L690.841 899.961L674.624 854.303L664.083 810.675L655.164 759.944L649.488 642.249L651.921 597.606L653.542 573.256L655.164 553.978L660.029 524.554L667.327 492.087L674.624 459.619L683.544 429.181L694.896 397.728L705.437 371.348L720.032 341.924L737.87 310.471L761.385 273.945L788.954 238.434L811.657 211.039L841.659 179.586L881.39 144.075L912.202 119.724L945.447 96.3881L981.935 75.0813L1020.04 55.8037L1046.8 44.6429L1071.94 37.5406L1098.7 32.4676C1109.78 31.6751 1127.08 32.4676 1127.08 32.4676L1150.59 34.4968L1174.92 41.5991L1193.57 53.7744L1206.54 66.9644L1221.14 88.2712L1226 111.607L1224.38 134.943L1216.27 154.221Z"/>
</mask>
<path d="M12.9735 165.382L22.7037 177.557L41.3532 187.703L57.5701 199.879L74.5979 214.083L88.3823 231.331L101.356 252.638L110.275 273.945L116.762 295.252L123.249 324.676L124.87 355.114L127.303 389.611L131.357 436.283L137.033 471.795L146.763 503.247L161.358 531.657L180.008 556.007L204.333 578.329L229.47 593.548L254.606 604.709L281.364 610.796L304.878 613.84H320.284L285.418 638.191L258.66 665.585L241.632 690.951L223.794 729.506L217.307 765.017L215.685 787.339V816.763L219.739 846.186L226.226 868.508L236.767 891.844L246.497 911.122L255.011 924.819L263.525 938.516L273.255 960.837L274.066 968.954V981.13V991.276V1002.44L273.255 1013.6L270.012 1024.76L266.769 1035.92L261.903 1047.08L257.038 1056.21L252.984 1064.33L249.741 1069.4L246.497 1076.5L242.443 1082.59L241.632 1088.68L244.876 1102.88L249.741 1111H260.282L270.012 1108.97L277.31 1102.88L283.796 1094.77L289.472 1084.62L295.148 1074.47L301.635 1064.33L311.365 1052.15L321.095 1044.04L330.015 1037.95L338.934 1032.87L350.286 1028.82L360.827 1024.76L370.557 1020.7L381.098 1015.63H395.693L420.829 1009.54L442.722 1000.41L463.804 986.203L487.319 965.911L502.725 947.648L516.509 925.326L531.104 895.902L544.078 864.449L557.862 815.748L564.349 780.237L570.025 750.813L572.458 730.521V575.285L570.025 557.022L566.782 537.744L559.484 504.262L552.997 473.824L539.213 430.195L519.753 382.509L501.103 344.968L479.21 305.398L445.155 255.682L409.478 214.083L379.476 183.645L355.151 160.309L332.447 141.031L297.581 113.637L266.769 93.3443L237.578 76.0959L206.766 59.8621L181.63 48.7014L159.737 40.5845L131.357 33.4822L104.599 31.453H87.5714L68.1111 33.4822L52.705 38.5553L37.2989 46.6721L20.2712 59.8621L8.91931 76.0959L2.43254 93.3443L0 110.593V123.783L2.43254 136.973L4.86508 147.119L7.29762 153.206L12.9735 165.382Z" fill="black"/>
<path d="M643.812 482.955L644.623 496.145V524.554V545.861L643.812 575.285L641.38 593.548V648.337L638.947 743.711L635.704 789.368L631.65 829.953L627.595 859.376L621.109 895.902L617.054 912.136L612.189 925.326L608.135 912.136L602.459 888.8L596.783 857.347L591.918 826.909L587.864 786.324L584.62 750.813V722.404L582.999 691.965V640.22V593.548V578.329L580.566 547.89V496.145L582.188 482.955L584.62 473.824L587.864 463.678L592.729 455.561L600.026 446.429L608.135 441.356H619.487L627.595 446.429L632.46 452.517L636.515 459.619L640.569 470.78L643.812 482.955Z" fill="black"/>
<path d="M613 327.72C556.241 327.72 565.16 424.108 613 424.108C660.84 424.108 669.759 327.72 613 327.72Z" fill="black"/>
<path d="M479.21 54.789V42.6137V39.5699L488.13 47.6868L497.86 54.789L509.212 59.8621L520.564 75.0813L529.483 89.2858L537.591 102.476L546.511 120.739L554.619 135.958L561.106 152.192L566.782 168.426L572.458 183.645L578.134 200.893L582.999 216.112L587.053 231.331L591.918 255.682L595.161 276.989L598.405 309.457H603.27L600.026 273.945L593.54 238.434L588.675 214.083L581.377 183.645L572.458 156.25L564.349 136.973L552.997 112.622L544.889 94.3589L537.591 82.1836L529.483 71.0228L518.942 54.789L513.266 45.6575L507.59 39.5699L501.914 32.4676L494.616 25.3653L488.13 19.2776L479.21 14.2046L471.102 10.1461L462.183 3.04384L452.452 0H445.155H439.479L432.181 5.07306L425.694 10.1461L419.208 19.2776L415.153 28.4091L412.721 42.6137V54.789L415.153 62.9059L419.208 75.0813L425.694 82.1836L432.181 89.2858L442.722 94.3589L455.696 92.3297L466.237 87.2566L473.534 79.1397L478.4 68.9936L479.21 54.789Z" fill="black"/>
<path d="M745.979 47.6868V38.5553L743.546 35.5114L739.492 38.5553L729.762 47.6868L717.599 56.8183L705.437 68.9936L694.085 85.2274L685.976 102.476L677.868 116.68L670.57 131.9L662.462 149.148L656.786 168.426L648.677 191.762L643.001 212.054L638.136 233.361L634.082 251.624L629.217 276.989L627.595 294.237V310.471L622.73 309.457V298.296V281.047L625.163 260.755L629.217 237.419L634.082 214.083L639.758 191.762L644.623 176.542L649.488 161.323L655.164 144.075L662.462 126.826L672.192 107.549L681.111 90.3005L688.409 78.1251L698.139 63.9206L706.247 53.7744L715.978 41.5991L724.086 32.4676L737.06 19.2776L745.979 16.2338L751.655 13.19L757.331 7.10228L764.628 4.05845L775.98 3.04384H785.71L795.44 9.13151L801.116 19.2776L811.657 30.4384V41.5991V56.8183L807.603 71.0228L801.116 80.1543L793.008 87.2566L780.034 92.3297H770.304L763.007 87.2566L754.087 80.1543L747.601 68.9936L745.979 56.8183V47.6868Z" fill="black"/>
<path d="M1216.27 154.221L1203.3 169.44L1187.89 181.616L1173.3 191.762L1161.13 202.922L1148.16 215.098L1137.62 229.302L1126.27 247.565L1115.72 266.843L1108.43 288.15L1103.56 311.486L1099.51 339.895L1096.26 368.304L1093.83 393.669L1092.21 421.064L1089.78 445.415L1084.91 474.838L1080.05 493.101L1069.51 515.423L1055.72 537.744L1038.69 558.037L1015.99 578.329L997.341 591.519L975.448 602.68L955.177 607.753L934.906 610.796L913.824 611.811H901.661L929.23 631.089L947.069 647.322L964.907 666.6L981.124 690.951L994.909 716.316L1003.83 740.667L1008.69 767.047L1010.31 798.5L1008.69 821.836L1003.83 849.23L994.909 878.654L981.124 911.122L964.097 936.487L947.069 955.764V961.852V971.998V988.232L947.88 1003.45L951.934 1017.66L956.799 1030.85L961.664 1040.99L966.529 1049.11L973.016 1058.24L980.314 1068.39L985.179 1078.53V1091.72L980.314 1099.84L973.016 1105.93L966.529 1108.97L956.799 1107.96L945.447 1098.82L938.15 1089.69L932.474 1078.53L928.419 1068.39L923.554 1062.3L916.257 1054.18L907.337 1047.08L899.229 1040.99L894.364 1036.93L885.445 1033.89L875.714 1030.85L868.417 1027.8L860.308 1025.77L848.956 1022.73L844.091 1017.66L810.847 1013.6L784.089 1003.45L760.574 988.232L736.249 966.925L716.788 942.574L690.841 899.961L674.624 854.303L664.083 810.675L655.164 759.944L649.488 642.249L651.921 597.606L653.542 573.256L655.164 553.978L660.029 524.554L667.327 492.087L674.624 459.619L683.544 429.181L694.896 397.728L705.437 371.348L720.032 341.924L737.87 310.471L761.385 273.945L788.954 238.434L811.657 211.039L841.659 179.586L881.39 144.075L912.202 119.724L945.447 96.3881L981.935 75.0813L1020.04 55.8037L1046.8 44.6429L1071.94 37.5406L1098.7 32.4676C1109.78 31.6751 1127.08 32.4676 1127.08 32.4676L1150.59 34.4968L1174.92 41.5991L1193.57 53.7744L1206.54 66.9644L1221.14 88.2712L1226 111.607L1224.38 134.943L1216.27 154.221Z" fill="black"/>
<path d="M12.9735 165.382L22.7037 177.557L41.3532 187.703L57.5701 199.879L74.5979 214.083L88.3823 231.331L101.356 252.638L110.275 273.945L116.762 295.252L123.249 324.676L124.87 355.114L127.303 389.611L131.357 436.283L137.033 471.795L146.763 503.247L161.358 531.657L180.008 556.007L204.333 578.329L229.47 593.548L254.606 604.709L281.364 610.796L304.878 613.84H320.284L285.418 638.191L258.66 665.585L241.632 690.951L223.794 729.506L217.307 765.017L215.685 787.339V816.763L219.739 846.186L226.226 868.508L236.767 891.844L246.497 911.122L255.011 924.819L263.525 938.516L273.255 960.837L274.066 968.954V981.13V991.276V1002.44L273.255 1013.6L270.012 1024.76L266.769 1035.92L261.903 1047.08L257.038 1056.21L252.984 1064.33L249.741 1069.4L246.497 1076.5L242.443 1082.59L241.632 1088.68L244.876 1102.88L249.741 1111H260.282L270.012 1108.97L277.31 1102.88L283.796 1094.77L289.472 1084.62L295.148 1074.47L301.635 1064.33L311.365 1052.15L321.095 1044.04L330.015 1037.95L338.934 1032.87L350.286 1028.82L360.827 1024.76L370.557 1020.7L381.098 1015.63H395.693L420.829 1009.54L442.722 1000.41L463.804 986.203L487.319 965.911L502.725 947.648L516.509 925.326L531.104 895.902L544.078 864.449L557.862 815.748L564.349 780.237L570.025 750.813L572.458 730.521V575.285L570.025 557.022L566.782 537.744L559.484 504.262L552.997 473.824L539.213 430.195L519.753 382.509L501.103 344.968L479.21 305.398L445.155 255.682L409.478 214.083L379.476 183.645L355.151 160.309L332.447 141.031L297.581 113.637L266.769 93.3443L237.578 76.0959L206.766 59.8621L181.63 48.7014L159.737 40.5845L131.357 33.4822L104.599 31.453H87.5714L68.1111 33.4822L52.705 38.5553L37.2989 46.6721L20.2712 59.8621L8.91931 76.0959L2.43254 93.3443L0 110.593V123.783L2.43254 136.973L4.86508 147.119L7.29762 153.206L12.9735 165.382Z" stroke="black" stroke-width="12" mask="url(#path-1-inside-1_16_18)"/>
<path d="M643.812 482.955L644.623 496.145V524.554V545.861L643.812 575.285L641.38 593.548V648.337L638.947 743.711L635.704 789.368L631.65 829.953L627.595 859.376L621.109 895.902L617.054 912.136L612.189 925.326L608.135 912.136L602.459 888.8L596.783 857.347L591.918 826.909L587.864 786.324L584.62 750.813V722.404L582.999 691.965V640.22V593.548V578.329L580.566 547.89V496.145L582.188 482.955L584.62 473.824L587.864 463.678L592.729 455.561L600.026 446.429L608.135 441.356H619.487L627.595 446.429L632.46 452.517L636.515 459.619L640.569 470.78L643.812 482.955Z" stroke="black" stroke-width="12" mask="url(#path-1-inside-1_16_18)"/>
<path d="M613 327.72C556.241 327.72 565.16 424.108 613 424.108C660.84 424.108 669.759 327.72 613 327.72Z" stroke="black" stroke-width="12" mask="url(#path-1-inside-1_16_18)"/>
<path d="M479.21 54.789V42.6137V39.5699L488.13 47.6868L497.86 54.789L509.212 59.8621L520.564 75.0813L529.483 89.2858L537.591 102.476L546.511 120.739L554.619 135.958L561.106 152.192L566.782 168.426L572.458 183.645L578.134 200.893L582.999 216.112L587.053 231.331L591.918 255.682L595.161 276.989L598.405 309.457H603.27L600.026 273.945L593.54 238.434L588.675 214.083L581.377 183.645L572.458 156.25L564.349 136.973L552.997 112.622L544.889 94.3589L537.591 82.1836L529.483 71.0228L518.942 54.789L513.266 45.6575L507.59 39.5699L501.914 32.4676L494.616 25.3653L488.13 19.2776L479.21 14.2046L471.102 10.1461L462.183 3.04384L452.452 0H445.155H439.479L432.181 5.07306L425.694 10.1461L419.208 19.2776L415.153 28.4091L412.721 42.6137V54.789L415.153 62.9059L419.208 75.0813L425.694 82.1836L432.181 89.2858L442.722 94.3589L455.696 92.3297L466.237 87.2566L473.534 79.1397L478.4 68.9936L479.21 54.789Z" stroke="black" stroke-width="12" mask="url(#path-1-inside-1_16_18)"/>
<path d="M745.979 47.6868V38.5553L743.546 35.5114L739.492 38.5553L729.762 47.6868L717.599 56.8183L705.437 68.9936L694.085 85.2274L685.976 102.476L677.868 116.68L670.57 131.9L662.462 149.148L656.786 168.426L648.677 191.762L643.001 212.054L638.136 233.361L634.082 251.624L629.217 276.989L627.595 294.237V310.471L622.73 309.457V298.296V281.047L625.163 260.755L629.217 237.419L634.082 214.083L639.758 191.762L644.623 176.542L649.488 161.323L655.164 144.075L662.462 126.826L672.192 107.549L681.111 90.3005L688.409 78.1251L698.139 63.9206L706.247 53.7744L715.978 41.5991L724.086 32.4676L737.06 19.2776L745.979 16.2338L751.655 13.19L757.331 7.10228L764.628 4.05845L775.98 3.04384H785.71L795.44 9.13151L801.116 19.2776L811.657 30.4384V41.5991V56.8183L807.603 71.0228L801.116 80.1543L793.008 87.2566L780.034 92.3297H770.304L763.007 87.2566L754.087 80.1543L747.601 68.9936L745.979 56.8183V47.6868Z" stroke="black" stroke-width="12" mask="url(#path-1-inside-1_16_18)"/>
<path d="M1216.27 154.221L1203.3 169.44L1187.89 181.616L1173.3 191.762L1161.13 202.922L1148.16 215.098L1137.62 229.302L1126.27 247.565L1115.72 266.843L1108.43 288.15L1103.56 311.486L1099.51 339.895L1096.26 368.304L1093.83 393.669L1092.21 421.064L1089.78 445.415L1084.91 474.838L1080.05 493.101L1069.51 515.423L1055.72 537.744L1038.69 558.037L1015.99 578.329L997.341 591.519L975.448 602.68L955.177 607.753L934.906 610.796L913.824 611.811H901.661L929.23 631.089L947.069 647.322L964.907 666.6L981.124 690.951L994.909 716.316L1003.83 740.667L1008.69 767.047L1010.31 798.5L1008.69 821.836L1003.83 849.23L994.909 878.654L981.124 911.122L964.097 936.487L947.069 955.764V961.852V971.998V988.232L947.88 1003.45L951.934 1017.66L956.799 1030.85L961.664 1040.99L966.529 1049.11L973.016 1058.24L980.314 1068.39L985.179 1078.53V1091.72L980.314 1099.84L973.016 1105.93L966.529 1108.97L956.799 1107.96L945.447 1098.82L938.15 1089.69L932.474 1078.53L928.419 1068.39L923.554 1062.3L916.257 1054.18L907.337 1047.08L899.229 1040.99L894.364 1036.93L885.445 1033.89L875.714 1030.85L868.417 1027.8L860.308 1025.77L848.956 1022.73L844.091 1017.66L810.847 1013.6L784.089 1003.45L760.574 988.232L736.249 966.925L716.788 942.574L690.841 899.961L674.624 854.303L664.083 810.675L655.164 759.944L649.488 642.249L651.921 597.606L653.542 573.256L655.164 553.978L660.029 524.554L667.327 492.087L674.624 459.619L683.544 429.181L694.896 397.728L705.437 371.348L720.032 341.924L737.87 310.471L761.385 273.945L788.954 238.434L811.657 211.039L841.659 179.586L881.39 144.075L912.202 119.724L945.447 96.3881L981.935 75.0813L1020.04 55.8037L1046.8 44.6429L1071.94 37.5406L1098.7 32.4676C1109.78 31.6751 1127.08 32.4676 1127.08 32.4676L1150.59 34.4968L1174.92 41.5991L1193.57 53.7744L1206.54 66.9644L1221.14 88.2712L1226 111.607L1224.38 134.943L1216.27 154.221Z" stroke="black" stroke-width="12" mask="url(#path-1-inside-1_16_18)"/>
</svg>
