<svg width="1232" height="1117" viewBox="0 0 1232 1117" fill="none" xmlns="http://www.w3.org/2000/svg">
<path d="M1047 507.262L1058.72 540.744L1041.69 561.037L1018.99 581.329L1000.34 594.519L978.448 605.68L958.177 610.753L937.906 613.796L916.824 614.811H904.661L932.23 634.089L950.069 650.322L967.907 669.6L984.124 693.951L997.909 719.316L1006.83 743.667L1011.69 770.047L1013.31 801.5L1011.69 824.836L1006.83 852.23L997.909 881.654L984.124 914.122L967.097 939.487L950.069 958.764V964.852V974.998V991.232L950.88 1006.45L954.934 1020.66L959.799 1033.85L964.664 1043.99L969.529 1052.11L976.016 1061.24L983.314 1071.39L988.179 1081.53V1094.72L983.314 1102.84L976.016 1108.93L969.529 1111.97L959.799 1110.96L948.447 1101.82L941.15 1092.69L935.474 1081.53L931.419 1071.39L926.554 1065.3L919.257 1057.18L910.337 1050.08L902.229 1043.99L897.364 1039.93L888.445 1036.89L878.714 1033.85L871.417 1030.8L863.308 1028.77L851.956 1025.73L847.091 1020.66L813.847 1016.6L787.089 1006.45L763.574 991.232L739.249 969.925L719.788 945.574L693.841 902.961L677.624 857.303L667.083 813.675L658.164 762.944L652.488 645.249L654.921 600.606L656.542 576.256L658.164 556.978L663.029 527.554L670.327 495.087L677.624 462.619L686.544 432.181L697.896 400.728L708.437 374.348L723.032 344.924L740.87 313.471L764.385 276.945L791.954 241.434L814.657 214.039L844.659 182.586L884.39 147.075L915.202 122.724L948.447 99.3881L984.935 78.0813L1023.04 58.8037L1049.8 47.6429L1074.94 40.5406L1101.7 35.4676C1112.78 34.6751 1130.08 35.4676 1130.08 35.4676L1153.59 37.4968L1177.92 44.5991L1196.57 56.7744L1209.54 69.9644L1224.14 91.2712L1229 114.607L1227.38 137.943L1219.27 157.221L1206.3 172.44L1190.89 184.616L1176.3 194.762L1164.13 205.922L1151.16 218.098L1140.62 232.302L1129.27 250.565L1118.72 269.843L1111.43 291.15L1106.56 314.486L1102.51 342.895L1099.26 371.304L1096.83 396.669L1095.21 425.064L1081 417M25.7037 180.557L15.9735 168.382L10.2976 156.206L7.86508 150.119L5.43254 139.973L3 126.783V113.593L5.43254 96.3443L11.9193 79.0959L23.2712 62.8621L40.2989 49.6721L55.705 41.5553L71.1111 36.4822L90.5714 34.453H107.599L134.357 36.4822L162.737 43.5845L184.63 51.7014L209.766 62.8621L240.578 79.0959L269.769 96.3443L300.581 116.637L335.447 144.031L358.151 163.309L382.476 186.645L412.478 217.083L448.155 258.682L482.21 308.398L504.103 347.968L522.753 385.509L542.213 433.195L555.997 476.824L562.484 507.262L569.782 540.744L573.025 560.022L575.458 578.285V733.521L573.025 753.813L567.349 783.237L560.862 818.748L547.078 867.449L534.104 898.902L519.509 928.326L505.725 950.648L490.319 968.911L466.804 989.203L445.722 1003.41L423.829 1012.54L398.693 1018.63H384.098L373.557 1023.7L363.827 1027.76L353.286 1031.82L341.934 1035.87L333.015 1040.95L324.095 1047.04L314.365 1055.15L304.635 1067.33L298.148 1077.47L292.472 1087.62L286.796 1097.77L280.31 1105.88L273.012 1111.97L263.282 1114H252.741L247.876 1105.88L244.632 1091.68L245.443 1085.59L249.497 1079.5L252.741 1072.4L255.984 1067.33L260.038 1059.21L264.903 1050.08L269.769 1038.92L273.012 1027.76L276.255 1016.6L277.066 1005.44V994.276V984.13V971.954L276.255 963.837L266.525 941.516L258.011 927.819L249.497 914.122L239.767 894.844L229.226 871.508L222.739 849.186L218.685 819.763V790.339L220.307 768.017L226.794 732.506L244.632 693.951L261.66 668.585L288.418 641.191L323.284 616.84H307.878L284.364 613.796L257.606 607.709L232.47 596.548L207.333 581.329L183.008 559.007L164.358 534.657L149.763 506.247L140.033 474.795L134.357 439.283L130.303 392.611L127.87 358.114L126.249 327.676L119.762 298.252L113.275 276.945L104.356 255.638L91.3823 234.331L77.5979 217.083L60.5701 202.879L44.3532 190.703L25.7037 180.557ZM647.623 499.145L646.812 485.955L643.569 473.78L639.515 462.619L635.46 455.517L630.595 449.429L622.487 444.356H611.135L603.026 449.429L595.729 458.561L590.864 466.678L587.62 476.824L585.188 485.955L583.566 499.145V550.89L585.999 581.329V596.548V643.22V694.965L587.62 725.404V753.813L590.864 789.324L594.918 829.909L599.783 860.347L605.459 891.8L611.135 915.136L615.189 928.326L620.054 915.136L624.109 898.902L630.595 862.376L634.65 832.953L638.704 792.368L641.947 746.711L644.38 651.337V596.548L646.812 578.285L647.623 548.861V527.554V499.145ZM616 330.72C559.241 330.72 568.16 427.108 616 427.108C663.84 427.108 672.759 330.72 616 330.72ZM482.21 45.6137V57.789L481.4 71.9936L476.534 82.1397L469.237 90.2566L458.696 95.3297L445.722 97.3589L435.181 92.2858L428.694 85.1836L422.208 78.0813L418.153 65.9059L415.721 57.789V45.6137L418.153 31.4091L422.208 22.2776L428.694 13.1461L435.181 8.07306L442.479 3H448.155H455.452L465.183 6.04384L474.102 13.1461L482.21 17.2046L491.13 22.2776L497.616 28.3653L504.914 35.4676L510.59 42.5699L516.266 48.6575L521.942 57.789L532.483 74.0228L540.591 85.1836L547.889 97.3589L555.997 115.622L567.349 139.973L575.458 159.25L584.377 186.645L591.675 217.083L596.54 241.434L603.026 276.945L606.27 312.457H601.405L598.161 279.989L594.918 258.682L590.053 234.331L585.999 219.112L581.134 203.893L575.458 186.645L569.782 171.426L564.106 155.192L557.619 138.958L549.511 123.739L540.591 105.476L532.483 92.2858L523.564 78.0813L512.212 62.8621L500.86 57.789L491.13 50.6868L482.21 42.5699V45.6137ZM748.979 41.5553V50.6868V59.8183L750.601 71.9936L757.087 83.1543L766.007 90.2566L773.304 95.3297H783.034L796.008 90.2566L804.116 83.1543L810.603 74.0228L814.657 59.8183V44.5991V33.4384L804.116 22.2776L798.44 12.1315L788.71 6.04384H778.98L767.628 7.05845L760.331 10.1023L754.655 16.19L748.979 19.2338L740.06 22.2776L727.086 35.4676L718.978 44.5991L709.247 56.7744L701.139 66.9206L691.409 81.1251L684.111 93.3005L675.192 110.549L665.462 129.826L658.164 147.075L652.488 164.323L647.623 179.542L642.758 194.762L637.082 217.083L632.217 240.419L628.163 263.755L625.73 284.047V301.296V312.457L630.595 313.471V297.237L632.217 279.989L637.082 254.624L641.136 236.361L646.001 215.054L651.677 194.762L659.786 171.426L665.462 152.148L673.57 134.9L680.868 119.68L688.976 105.476L697.085 88.2274L708.437 71.9936L720.599 59.8183L732.762 50.6868L742.492 41.5553L746.546 38.5114L748.979 41.5553Z" stroke="#008080" stroke-width="5"/>
</svg>
